<?xml version="1.0" encoding="utf-8" ?>
<svg xmlns="http://www.w3.org/2000/svg" xmlns:xlink="http://www.w3.org/1999/xlink" width="1024" height="1024">
	<path fill="#1B1A1A" d="M0 0L1024 0L1024 1024L0 1024L0 0Z"/>
	<path fill="white" d="M803.922 358.543Q804.858 357.164 805.852 355.826Q806.846 354.487 807.896 353.193Q808.946 351.898 810.05 350.65Q811.154 349.401 812.311 348.201Q813.467 347.001 814.674 345.851Q815.881 344.701 817.135 343.604Q818.39 342.507 819.69 341.464Q820.991 340.421 822.335 339.435Q823.678 338.449 825.063 337.52Q826.447 336.592 827.87 335.724Q829.293 334.856 830.752 334.049Q832.21 333.243 833.702 332.499Q835.194 331.755 836.716 331.076Q838.238 330.397 839.788 329.783Q841.337 329.169 842.912 328.622Q844.486 328.075 846.083 327.595Q847.679 327.116 849.294 326.705Q850.91 326.294 852.541 325.952Q854.173 325.611 855.817 325.339Q857.462 325.067 859.116 324.866Q860.771 324.665 862.433 324.534Q864.094 324.404 865.76 324.344Q867.426 324.285 869.093 324.297Q870.759 324.308 872.424 324.391Q874.089 324.474 875.749 324.627Q877.408 324.781 879.06 325.006Q880.712 325.23 882.352 325.525Q883.993 325.819 885.619 326.184Q887.246 326.548 888.855 326.981Q890.465 327.415 892.054 327.917Q893.644 328.418 895.21 328.987Q896.777 329.557 898.318 330.192Q899.859 330.827 901.371 331.528Q902.884 332.229 904.365 332.993Q905.846 333.758 907.293 334.585Q908.74 335.411 910.151 336.299Q911.562 337.187 912.933 338.135Q914.305 339.082 915.634 340.087Q916.964 341.092 918.25 342.153Q919.535 343.214 920.775 344.329Q922.014 345.443 923.204 346.61Q924.395 347.776 925.535 348.993Q926.674 350.209 927.761 351.473Q928.848 352.737 929.88 354.046Q930.911 355.355 931.887 356.707Q932.862 358.059 933.778 359.451Q934.695 360.843 935.551 362.273Q936.407 363.703 937.202 365.169Q937.996 366.634 938.727 368.132Q939.458 369.63 940.125 371.158Q940.791 372.685 941.392 374.24Q941.993 375.795 942.527 377.374Q943.061 378.953 943.527 380.553Q943.993 382.153 944.39 383.772Q944.788 385.391 945.116 387.025Q945.444 388.659 945.702 390.306Q945.96 391.953 946.147 393.609Q946.334 395.265 946.451 396.928Q946.567 398.591 946.613 400.257Q946.659 401.923 946.633 403.59Q946.607 405.257 946.511 406.921Q946.414 408.585 946.246 410.243Q946.079 411.901 945.841 413.551Q945.602 415.201 945.294 416.839Q944.986 418.477 944.608 420.1Q944.229 421.724 943.783 423.33Q943.336 424.935 942.821 426.521Q942.306 428.106 941.723 429.668Q941.141 431.23 940.493 432.765Q939.844 434.301 939.131 435.807Q938.418 437.314 937.641 438.788Q936.864 440.263 936.025 441.703Q935.186 443.144 934.286 444.547Q933.386 445.95 932.428 447.313Q931.469 448.677 930.453 449.998Q929.437 451.319 928.365 452.596Q927.293 453.873 926.168 455.103Q925.043 456.332 923.867 457.513Q922.69 458.694 921.464 459.823Q920.239 460.953 918.966 462.029Q917.693 463.105 916.375 464.126Q915.057 465.147 913.697 466.11Q912.337 467.074 910.937 467.979Q909.538 468.883 908.1 469.728Q906.663 470.572 905.191 471.354Q903.719 472.136 902.215 472.855Q900.711 473.573 899.178 474.227Q897.645 474.881 896.085 475.469Q894.525 476.056 892.942 476.577Q891.358 477.098 889.754 477.55Q888.15 478.003 886.528 478.387Q884.906 478.77 883.269 479.085Q881.632 479.399 879.983 479.643Q878.334 479.887 876.677 480.061Q875.019 480.234 873.355 480.337Q871.691 480.439 870.025 480.471C870.803 489.384 870.393 498.557 870.416 507.51L870.548 555.489L870.633 625.929C870.63 639.68 870.973 653.567 870.343 667.298C855.819 666.966 841.237 667.328 826.705 667.34L739.504 667.294L397.872 667.191L275.81 667.176L237.619 667.172C230.816 667.166 223.684 667.547 216.932 666.876Q216.2 667.939 215.433 668.977Q214.666 670.015 213.865 671.027Q213.064 672.039 212.23 673.023Q211.395 674.008 210.529 674.964Q209.662 675.921 208.764 676.847Q207.866 677.774 206.938 678.671Q206.009 679.567 205.051 680.432Q204.094 681.297 203.108 682.13Q202.122 682.963 201.108 683.762Q200.095 684.561 199.056 685.326Q198.017 686.092 196.952 686.822Q195.888 687.552 194.8 688.246Q193.712 688.94 192.602 689.598Q191.491 690.255 190.36 690.876Q189.228 691.496 188.076 692.078Q186.924 692.66 185.754 693.204Q184.583 693.747 183.395 694.252Q182.207 694.756 181.003 695.22Q179.799 695.685 178.58 696.109Q177.361 696.533 176.129 696.916Q174.896 697.299 173.652 697.641Q172.407 697.983 171.152 698.283Q169.897 698.584 168.633 698.842Q167.368 699.1 166.096 699.316Q164.823 699.532 163.544 699.706Q162.266 699.879 160.982 700.01Q159.698 700.141 158.41 700.229Q157.123 700.317 155.833 700.362Q154.543 700.407 153.253 700.409Q151.962 700.411 150.672 700.37Q149.382 700.329 148.094 700.246Q146.806 700.162 145.522 700.035Q144.238 699.908 142.958 699.739Q141.679 699.569 140.406 699.357Q139.133 699.146 137.867 698.891Q136.602 698.637 135.346 698.341Q134.09 698.045 132.844 697.707Q131.599 697.369 130.365 696.989Q129.131 696.61 127.911 696.19Q126.691 695.77 125.485 695.309Q124.28 694.849 123.09 694.348Q121.9 693.848 120.728 693.308Q119.556 692.768 118.402 692.19Q117.248 691.611 116.115 690.995Q114.981 690.378 113.868 689.724Q112.756 689.07 111.666 688.379Q110.575 687.688 109.509 686.962Q108.442 686.235 107.401 685.473Q106.359 684.711 105.343 683.915Q104.327 683.119 103.339 682.289Q102.35 681.46 101.389 680.598Q100.429 679.736 99.4974 678.843Q98.5662 677.949 97.6651 677.025Q96.7641 676.101 95.8944 675.147Q95.0247 674.194 94.1872 673.212Q93.3497 672.23 92.5454 671.221Q91.7411 670.211 90.9708 669.176Q90.2006 668.14 89.4652 667.08Q88.7299 666.019 88.0303 664.935Q87.3308 663.85 86.6677 662.743Q86.0046 661.636 85.3788 660.507Q84.753 659.378 84.1651 658.229Q83.5772 657.08 83.028 655.912Q82.4787 654.745 81.9686 653.559Q81.4585 652.374 80.9882 651.172Q80.5179 649.97 80.0879 648.753Q79.6579 647.536 79.2687 646.306Q78.8795 645.075 78.5314 643.832Q78.1834 642.59 77.877 641.336Q77.5705 640.082 77.306 638.819Q77.0415 637.556 76.8192 636.285Q76.597 635.013 76.4171 633.735Q76.2373 632.457 76.1002 631.174Q75.9631 629.891 75.8687 628.603Q75.7744 627.316 75.723 626.027Q75.6716 624.737 75.6632 623.447Q75.6548 622.156 75.6894 620.866Q75.724 619.576 75.8015 618.288Q75.8791 616.999 75.9995 615.714Q76.1199 614.429 76.2831 613.149Q76.4462 611.869 76.6519 610.595Q76.8576 609.321 77.1057 608.054Q77.3537 606.788 77.6438 605.53Q77.9339 604.273 78.2657 603.025Q78.5975 601.778 78.9707 600.543Q79.3438 599.307 79.7579 598.085Q80.1721 596.863 80.6267 595.655Q81.0813 594.447 81.5759 593.255Q82.0704 592.063 82.6045 590.888Q83.1385 589.713 83.7113 588.556Q84.2842 587.4 84.8953 586.263Q85.5063 585.126 86.1549 584.011Q86.8035 582.895 87.4889 581.801Q88.1743 580.708 88.8958 579.638Q89.6172 578.568 90.3739 577.522Q91.1306 576.477 91.9217 575.457Q92.9867 574.084 94.1123 572.761Q95.2378 571.437 96.4215 570.165Q97.6052 568.893 98.8448 567.676Q100.084 566.458 101.377 565.298Q102.67 564.137 104.014 563.035Q105.357 561.934 106.749 560.894Q108.141 559.854 109.578 558.877Q111.015 557.9 112.494 556.989Q113.973 556.077 115.492 555.233Q117.01 554.389 118.565 553.614Q120.12 552.839 121.708 552.134Q123.296 551.429 124.915 550.797Q126.533 550.164 128.178 549.604Q129.823 549.045 131.491 548.559Q133.159 548.074 134.848 547.664Q136.536 547.254 138.241 546.92Q144.093 545.774 150.052 545.537L149.597 358.614L579.494 358.695L724.518 359.01C750.876 359.029 777.61 359.914 803.922 358.543Z"/>
	<path fill="#F1750A" d="M803.922 358.543Q804.858 357.164 805.852 355.826Q806.846 354.487 807.896 353.193Q808.946 351.898 810.05 350.65Q811.154 349.401 812.311 348.201Q813.467 347.001 814.674 345.851Q815.881 344.701 817.135 343.604Q818.39 342.507 819.69 341.464Q820.991 340.421 822.335 339.435Q823.678 338.449 825.063 337.52Q826.447 336.592 827.87 335.724Q829.293 334.856 830.752 334.049Q832.21 333.243 833.702 332.499Q835.194 331.755 836.716 331.076Q838.238 330.397 839.788 329.783Q841.337 329.169 842.912 328.622Q844.486 328.075 846.083 327.595Q847.679 327.116 849.294 326.705Q850.91 326.294 852.541 325.952Q854.173 325.611 855.817 325.339Q857.462 325.067 859.116 324.866Q860.771 324.665 862.433 324.534Q864.094 324.404 865.76 324.344Q867.426 324.285 869.093 324.297Q870.759 324.308 872.424 324.391Q874.089 324.474 875.749 324.627Q877.408 324.781 879.06 325.006Q880.712 325.23 882.352 325.525Q883.993 325.819 885.619 326.184Q887.246 326.548 888.855 326.981Q890.465 327.415 892.054 327.917Q893.644 328.418 895.21 328.987Q896.777 329.557 898.318 330.192Q899.859 330.827 901.371 331.528Q902.884 332.229 904.365 332.993Q905.846 333.758 907.293 334.585Q908.74 335.411 910.151 336.299Q911.562 337.187 912.933 338.135Q914.305 339.082 915.634 340.087Q916.964 341.092 918.25 342.153Q919.535 343.214 920.775 344.329Q922.014 345.443 923.204 346.61Q924.395 347.776 925.535 348.993Q926.674 350.209 927.761 351.473Q928.848 352.737 929.88 354.046Q930.911 355.355 931.887 356.707Q932.862 358.059 933.778 359.451Q934.695 360.843 935.551 362.273Q936.407 363.703 937.202 365.169Q937.996 366.634 938.727 368.132Q939.458 369.63 940.125 371.158Q940.791 372.685 941.392 374.24Q941.993 375.795 942.527 377.374Q943.061 378.953 943.527 380.553Q943.993 382.153 944.39 383.772Q944.788 385.391 945.116 387.025Q945.444 388.659 945.702 390.306Q945.96 391.953 946.147 393.609Q946.334 395.265 946.451 396.928Q946.567 398.591 946.613 400.257Q946.659 401.923 946.633 403.59Q946.607 405.257 946.511 406.921Q946.414 408.585 946.246 410.243Q946.079 411.901 945.841 413.551Q945.602 415.201 945.294 416.839Q944.986 418.477 944.608 420.1Q944.229 421.724 943.783 423.33Q943.336 424.935 942.821 426.521Q942.306 428.106 941.723 429.668Q941.141 431.23 940.493 432.765Q939.844 434.301 939.131 435.807Q938.418 437.314 937.641 438.788Q936.864 440.263 936.025 441.703Q935.186 443.144 934.286 444.547Q933.386 445.95 932.428 447.313Q931.469 448.677 930.453 449.998Q929.437 451.319 928.365 452.596Q927.293 453.873 926.168 455.103Q925.043 456.332 923.867 457.513Q922.69 458.694 921.464 459.823Q920.239 460.953 918.966 462.029Q917.693 463.105 916.375 464.126Q915.057 465.147 913.697 466.11Q912.337 467.074 910.937 467.979Q909.538 468.883 908.1 469.728Q906.663 470.572 905.191 471.354Q903.719 472.136 902.215 472.855Q900.711 473.573 899.178 474.227Q897.645 474.881 896.085 475.469Q894.525 476.056 892.942 476.577Q891.358 477.098 889.754 477.55Q888.15 478.003 886.528 478.387Q884.906 478.77 883.269 479.085Q881.632 479.399 879.983 479.643Q878.334 479.887 876.677 480.061Q875.019 480.234 873.355 480.337Q871.691 480.439 870.025 480.471Q868.692 480.496 867.358 480.476Q866.024 480.456 864.692 480.39Q863.36 480.324 862.031 480.213Q860.702 480.101 859.377 479.945Q858.053 479.788 856.734 479.586Q855.416 479.385 854.105 479.138Q852.794 478.891 851.493 478.6Q850.191 478.309 848.9 477.973Q847.609 477.638 846.331 477.258Q845.052 476.879 843.787 476.456Q842.522 476.033 841.272 475.568Q840.023 475.102 838.789 474.593Q837.556 474.085 836.341 473.535Q835.126 472.985 833.931 472.394Q832.735 471.803 831.56 471.171Q830.386 470.539 829.233 469.868Q828.081 469.197 826.952 468.486Q825.823 467.776 824.719 467.027Q823.615 466.279 822.537 465.493Q821.46 464.707 820.409 463.885Q819.359 463.063 818.338 462.206Q817.316 461.348 816.324 460.456Q815.333 459.564 814.372 458.639Q813.411 457.714 812.483 456.756Q811.554 455.799 810.659 454.81Q809.764 453.822 808.903 452.803Q808.042 451.784 807.216 450.737Q806.39 449.689 805.601 448.614Q804.812 447.539 804.059 446.438Q803.307 445.337 802.593 444.21Q801.878 443.084 801.203 441.934Q800.528 440.784 799.892 439.611Q799.256 438.438 798.661 437.245Q798.066 436.051 797.512 434.838Q796.957 433.625 796.445 432.394Q795.933 431.162 795.462 429.914Q794.992 428.666 794.565 427.402Q794.138 426.139 793.754 424.861Q793.37 423.584 793.03 422.294Q792.691 421.005 792.395 419.704Q792.099 418.403 791.848 417.093Q791.597 415.784 791.391 414.466Q791.184 413.148 791.023 411.824Q790.862 410.5 790.746 409.171Q790.63 407.843 790.56 406.511Q790.49 405.179 790.465 403.845Q790.44 402.512 790.461 401.178Q790.481 399.844 790.548 398.512Q790.614 397.18 790.725 395.851Q790.837 394.522 790.994 393.198Q791.151 391.873 791.353 390.555Q791.555 389.236 791.802 387.926Q792.049 386.615 792.341 385.313Q792.633 384.012 792.969 382.721Q793.305 381.43 793.684 380.152Q794.064 378.873 794.487 377.608Q794.911 376.344 795.377 375.094Q795.843 373.844 796.352 372.611Q796.86 371.378 797.411 370.163Q797.961 368.948 798.553 367.753Q799.144 366.558 799.776 365.383Q800.408 364.208 801.08 363.056Q801.752 361.904 802.462 360.775Q803.173 359.647 803.922 358.543Z"/>
	<path fill="white" d="M840.465 388.823Q840.814 388.764 841.165 388.722Q841.517 388.681 841.87 388.656Q842.223 388.632 842.576 388.625Q842.93 388.618 843.284 388.628Q843.638 388.638 843.99 388.666Q844.343 388.694 844.694 388.739Q845.045 388.784 845.393 388.846Q845.742 388.908 846.087 388.987Q846.431 389.066 846.772 389.163Q847.113 389.259 847.448 389.371Q847.783 389.484 848.113 389.613Q848.442 389.742 848.765 389.887Q849.088 390.032 849.403 390.193Q849.718 390.354 850.025 390.53Q850.332 390.706 850.63 390.897Q850.928 391.088 851.216 391.293Q851.504 391.498 851.782 391.718Q852.06 391.937 852.327 392.169Q852.593 392.402 852.848 392.647Q853.103 392.893 853.345 393.151Q853.588 393.408 853.818 393.678Q854.047 393.947 854.263 394.227Q854.479 394.507 854.681 394.798Q854.883 395.088 855.071 395.388Q855.258 395.688 855.431 395.997Q855.603 396.306 855.76 396.623Q855.918 396.94 856.059 397.265Q856.201 397.589 856.326 397.92Q856.451 398.251 856.56 398.588Q856.669 398.924 856.761 399.266Q856.853 399.607 856.928 399.953Q857.004 400.299 857.062 400.648Q857.12 400.997 857.161 401.349Q857.202 401.7 857.226 402.053Q857.25 402.406 857.256 402.76Q857.262 403.114 857.251 403.467Q857.24 403.821 857.212 404.174Q857.183 404.526 857.138 404.877Q857.092 405.228 857.029 405.576Q856.966 405.924 856.886 406.269Q856.806 406.614 856.709 406.954Q856.613 407.294 856.499 407.63Q856.386 407.965 856.256 408.294Q856.126 408.623 855.981 408.946Q855.835 409.268 855.674 409.583Q855.512 409.898 855.335 410.204Q855.159 410.511 854.967 410.808Q854.776 411.106 854.57 411.394Q854.364 411.681 854.144 411.959Q853.924 412.236 853.691 412.502Q853.458 412.768 853.212 413.023Q852.966 413.277 852.708 413.519Q852.45 413.761 852.18 413.99Q851.91 414.219 851.63 414.434Q851.349 414.65 851.058 414.851Q850.767 415.053 850.467 415.24Q850.166 415.427 849.857 415.599Q849.548 415.77 849.23 415.927Q848.913 416.083 848.588 416.224Q848.264 416.365 847.933 416.489Q847.601 416.614 847.265 416.722Q846.928 416.83 846.586 416.922Q846.244 417.013 845.898 417.088Q845.552 417.163 845.203 417.22Q844.855 417.277 844.504 417.318Q844.154 417.358 843.801 417.381Q843.449 417.404 843.096 417.41Q842.744 417.415 842.391 417.404Q842.038 417.392 841.686 417.363Q841.335 417.334 840.985 417.288Q840.635 417.242 840.288 417.179Q839.94 417.116 839.597 417.036Q839.253 416.956 838.914 416.859Q838.574 416.762 838.24 416.649Q837.906 416.535 837.578 416.406Q837.249 416.276 836.928 416.131Q836.606 415.985 836.292 415.824Q835.978 415.663 835.673 415.487Q835.367 415.31 835.07 415.119Q834.773 414.928 834.487 414.723Q834.199 414.517 833.923 414.298Q833.646 414.079 833.381 413.846Q833.115 413.614 832.862 413.369Q832.608 413.124 832.366 412.866Q832.125 412.609 831.896 412.34Q831.668 412.071 831.452 411.791Q831.237 411.511 831.036 411.221Q830.835 410.932 830.648 410.632Q830.462 410.333 830.29 410.024Q830.118 409.716 829.961 409.4Q829.805 409.083 829.664 408.76Q829.523 408.436 829.399 408.106Q829.274 407.776 829.165 407.44Q829.057 407.104 828.965 406.764Q828.873 406.423 828.798 406.078Q828.723 405.733 828.665 405.385Q828.607 405.037 828.566 404.686Q828.525 404.336 828.501 403.984Q828.478 403.632 828.471 403.279Q828.465 402.926 828.476 402.573Q828.487 402.221 828.515 401.869Q828.543 401.517 828.588 401.167Q828.633 400.817 828.696 400.47Q828.758 400.122 828.838 399.779Q828.917 399.435 829.013 399.095Q829.109 398.756 829.222 398.421Q829.335 398.087 829.464 397.758Q829.593 397.43 829.737 397.108Q829.882 396.786 830.043 396.472Q830.203 396.158 830.379 395.851Q830.554 395.545 830.745 395.248Q830.935 394.951 831.14 394.664Q831.345 394.376 831.563 394.099Q831.782 393.822 832.014 393.556Q832.246 393.29 832.491 393.036Q832.735 392.782 832.992 392.54Q833.249 392.298 833.517 392.069Q833.786 391.839 834.065 391.624Q834.344 391.408 834.634 391.206Q834.923 391.005 835.222 390.817Q835.522 390.63 835.829 390.457Q836.137 390.285 836.453 390.128Q836.769 389.971 837.093 389.829Q837.416 389.688 837.746 389.562Q838.076 389.437 838.411 389.328Q838.747 389.219 839.087 389.126Q839.428 389.033 839.772 388.958Q840.117 388.882 840.465 388.823Z"/>
	<path fill="white" d="M891.96 388.797Q892.304 388.73 892.651 388.679Q892.998 388.629 893.347 388.596Q893.696 388.562 894.046 388.546Q894.396 388.53 894.747 388.532Q895.097 388.533 895.447 388.551Q895.797 388.57 896.146 388.606Q896.495 388.641 896.841 388.694Q897.188 388.747 897.531 388.817Q897.875 388.887 898.215 388.974Q898.554 389.06 898.889 389.164Q899.224 389.267 899.554 389.387Q899.883 389.506 900.206 389.642Q900.53 389.778 900.846 389.929Q901.162 390.081 901.47 390.248Q901.778 390.415 902.078 390.597Q902.378 390.779 902.668 390.975Q902.958 391.171 903.239 391.382Q903.519 391.592 903.788 391.816Q904.058 392.041 904.316 392.278Q904.575 392.515 904.821 392.764Q905.067 393.014 905.301 393.275Q905.535 393.536 905.755 393.809Q905.976 394.081 906.182 394.364Q906.389 394.647 906.582 394.94Q906.775 395.233 906.953 395.535Q907.13 395.837 907.293 396.147Q907.456 396.458 907.604 396.776Q907.751 397.094 907.883 397.419Q908.014 397.744 908.13 398.075Q908.245 398.406 908.344 398.742Q908.443 399.078 908.525 399.419Q908.608 399.76 908.673 400.104Q908.738 400.448 908.787 400.796Q908.835 401.143 908.866 401.492Q908.898 401.841 908.912 402.191Q908.926 402.542 908.922 402.892Q908.919 403.243 908.899 403.593Q908.878 403.943 908.84 404.291Q908.802 404.64 908.748 404.986Q908.693 405.332 908.621 405.675Q908.549 406.019 908.46 406.358Q908.372 406.697 908.266 407.031Q908.161 407.366 908.04 407.694Q907.918 408.023 907.78 408.346Q907.643 408.668 907.489 408.983Q907.336 409.299 907.167 409.606Q906.999 409.913 906.815 410.212Q906.631 410.51 906.433 410.8Q906.235 411.089 906.023 411.368Q905.811 411.647 905.585 411.915Q905.36 412.184 905.121 412.441Q904.883 412.698 904.632 412.942Q904.381 413.187 904.118 413.419Q903.855 413.651 903.582 413.87Q903.308 414.089 903.024 414.295Q902.739 414.5 902.445 414.691Q902.151 414.882 901.848 415.058Q901.545 415.234 901.234 415.395Q900.923 415.556 900.604 415.702Q900.285 415.848 899.959 415.977Q899.633 416.107 899.302 416.22Q898.97 416.334 898.633 416.431Q898.296 416.528 897.955 416.608Q897.614 416.689 897.269 416.752Q896.927 416.815 896.582 416.861Q896.237 416.907 895.89 416.936Q895.543 416.966 895.196 416.978Q894.848 416.99 894.5 416.985Q894.152 416.981 893.805 416.959Q893.458 416.937 893.112 416.898Q892.766 416.86 892.422 416.804Q892.079 416.748 891.739 416.676Q891.398 416.604 891.062 416.515Q890.725 416.426 890.394 416.321Q890.062 416.216 889.736 416.094Q889.41 415.973 889.09 415.836Q888.77 415.699 888.457 415.546Q888.144 415.394 887.84 415.226Q887.535 415.058 887.238 414.876Q886.942 414.693 886.655 414.497Q886.368 414.3 886.091 414.09Q885.814 413.879 885.547 413.655Q885.281 413.432 885.025 413.195Q884.77 412.959 884.527 412.71Q884.283 412.461 884.052 412.201Q883.822 411.941 883.604 411.669Q883.386 411.398 883.181 411.116Q882.977 410.835 882.786 410.544Q882.596 410.252 882.42 409.952Q882.244 409.652 882.083 409.343Q881.922 409.035 881.776 408.719Q881.631 408.403 881.501 408.08Q881.37 407.758 881.256 407.429Q881.142 407.1 881.044 406.766Q880.946 406.432 880.865 406.094Q880.783 405.756 880.718 405.414Q880.653 405.072 880.605 404.727Q880.557 404.383 880.526 404.036Q880.494 403.69 880.48 403.342Q880.466 402.994 880.469 402.646Q880.471 402.298 880.491 401.951Q880.511 401.604 880.548 401.258Q880.584 400.911 880.638 400.568Q880.691 400.224 880.762 399.883Q880.832 399.542 880.919 399.205Q881.006 398.868 881.109 398.536Q881.213 398.204 881.332 397.877Q881.451 397.55 881.587 397.229Q881.722 396.909 881.873 396.595Q882.023 396.281 882.189 395.976Q882.355 395.67 882.536 395.372Q882.717 395.075 882.911 394.787Q883.106 394.498 883.315 394.22Q883.524 393.942 883.746 393.674Q883.969 393.406 884.204 393.15Q884.439 392.893 884.686 392.648Q884.933 392.403 885.192 392.171Q885.451 391.938 885.721 391.719Q885.991 391.499 886.272 391.293Q886.552 391.087 886.842 390.895Q887.132 390.703 887.432 390.526Q887.731 390.348 888.038 390.185Q888.346 390.022 888.661 389.875Q888.976 389.727 889.298 389.595Q889.62 389.463 889.948 389.347Q890.276 389.231 890.61 389.131Q890.943 389.031 891.281 388.947Q891.619 388.864 891.96 388.797Z"/>
	<path fill="white" d="M866.334 414.971Q866.791 414.896 867.251 414.851Q867.712 414.806 868.175 414.791Q868.637 414.776 869.1 414.792Q869.562 414.808 870.023 414.855Q870.483 414.901 870.94 414.978Q871.396 415.055 871.847 415.162Q872.297 415.269 872.739 415.405Q873.182 415.541 873.614 415.706Q874.047 415.871 874.467 416.065Q874.888 416.258 875.294 416.479Q875.701 416.699 876.093 416.946Q876.484 417.193 876.859 417.466Q877.233 417.738 877.588 418.034Q877.944 418.331 878.279 418.65Q878.614 418.969 878.927 419.31Q879.241 419.65 879.531 420.011Q879.821 420.372 880.087 420.751Q880.353 421.13 880.593 421.525Q880.833 421.921 881.047 422.332Q881.26 422.742 881.446 423.166Q881.632 423.59 881.79 424.025Q881.947 424.46 882.076 424.905Q882.204 425.35 882.303 425.802Q882.402 426.254 882.471 426.712Q882.54 427.17 882.578 427.631Q882.617 428.092 882.625 428.555Q882.633 429.018 882.61 429.48Q882.588 429.942 882.534 430.402Q882.481 430.862 882.398 431.317Q882.315 431.773 882.202 432.221Q882.088 432.67 881.946 433.111Q881.803 433.551 881.632 433.981Q881.461 434.411 881.261 434.829Q881.062 435.247 880.836 435.65Q880.609 436.054 880.357 436.442Q880.104 436.83 879.826 437.2Q879.549 437.571 879.247 437.922Q878.946 438.273 878.622 438.604Q878.298 438.934 877.953 439.243Q877.607 439.551 877.243 439.836Q876.878 440.121 876.495 440.381Q876.112 440.642 875.713 440.876Q875.314 441.111 874.9 441.318Q874.487 441.526 874.06 441.706Q873.634 441.886 873.196 442.037Q872.759 442.189 872.312 442.311Q871.866 442.433 871.412 442.525Q870.959 442.618 870.5 442.68Q870.162 442.726 869.823 442.755Q869.483 442.785 869.143 442.797Q868.802 442.81 868.461 442.807Q868.12 442.803 867.78 442.782Q867.44 442.762 867.101 442.725Q866.762 442.689 866.426 442.635Q866.089 442.582 865.755 442.512Q865.422 442.443 865.092 442.357Q864.762 442.271 864.436 442.17Q864.111 442.068 863.791 441.951Q863.471 441.833 863.157 441.701Q862.843 441.568 862.536 441.42Q862.229 441.272 861.93 441.11Q861.63 440.947 861.339 440.77Q861.047 440.593 860.765 440.402Q860.483 440.211 860.21 440.007Q859.937 439.802 859.675 439.585Q859.413 439.367 859.161 439.137Q858.909 438.907 858.669 438.665Q858.429 438.423 858.201 438.17Q857.973 437.917 857.758 437.653Q857.542 437.389 857.34 437.114Q857.138 436.84 856.949 436.556Q856.76 436.273 856.585 435.98Q856.411 435.687 856.25 435.387Q856.09 435.086 855.944 434.778Q855.799 434.469 855.669 434.154Q855.538 433.839 855.423 433.519Q855.308 433.198 855.209 432.872Q855.11 432.545 855.027 432.215Q854.944 431.884 854.877 431.55Q854.81 431.216 854.759 430.879Q854.708 430.542 854.674 430.203Q854.64 429.864 854.622 429.523Q854.604 429.183 854.603 428.842Q854.602 428.501 854.618 428.161Q854.633 427.82 854.665 427.481Q854.697 427.142 854.745 426.804Q854.794 426.467 854.859 426.132Q854.924 425.798 855.005 425.467Q855.086 425.135 855.183 424.809Q855.28 424.482 855.392 424.16Q855.505 423.839 855.633 423.523Q855.762 423.207 855.905 422.898Q856.049 422.589 856.207 422.287Q856.365 421.985 856.538 421.691Q856.711 421.398 856.898 421.113Q857.085 420.828 857.285 420.552Q857.486 420.276 857.699 420.011Q857.913 419.745 858.139 419.49Q858.366 419.236 858.604 418.992Q858.843 418.749 859.093 418.517Q859.343 418.285 859.604 418.066Q859.865 417.847 860.136 417.641Q860.407 417.434 860.688 417.242Q860.969 417.049 861.26 416.87Q861.55 416.691 861.848 416.526Q862.147 416.362 862.453 416.212Q862.759 416.062 863.072 415.927Q863.385 415.792 863.704 415.673Q864.023 415.553 864.348 415.45Q864.673 415.346 865.002 415.258Q865.331 415.17 865.665 415.098Q865.998 415.026 866.334 414.971Z"/>
	<path fill="white" d="M866.234 363.765Q866.565 363.7 866.898 363.652Q867.232 363.603 867.568 363.571Q867.903 363.539 868.24 363.523Q868.577 363.507 868.914 363.508Q869.251 363.508 869.588 363.525Q869.925 363.542 870.26 363.576Q870.596 363.609 870.929 363.659Q871.263 363.709 871.593 363.775Q871.924 363.841 872.251 363.924Q872.578 364.006 872.901 364.104Q873.223 364.202 873.541 364.315Q873.858 364.429 874.17 364.558Q874.481 364.687 874.786 364.831Q875.091 364.975 875.388 365.134Q875.686 365.293 875.975 365.466Q876.264 365.639 876.545 365.826Q876.825 366.013 877.096 366.214Q877.367 366.414 877.628 366.628Q877.889 366.841 878.139 367.067Q878.39 367.293 878.629 367.531Q878.867 367.769 879.094 368.019Q879.321 368.268 879.536 368.528Q879.75 368.788 879.952 369.058Q880.154 369.329 880.342 369.609Q880.53 369.888 880.704 370.177Q880.878 370.466 881.038 370.762Q881.198 371.059 881.344 371.364Q881.489 371.668 881.619 371.979Q881.749 372.29 881.864 372.607Q881.979 372.924 882.078 373.246Q882.178 373.568 882.261 373.895Q882.345 374.222 882.412 374.552Q882.479 374.882 882.531 375.216Q882.582 375.549 882.617 375.884Q882.651 376.22 882.67 376.556Q882.688 376.893 882.69 377.23Q882.692 377.567 882.678 377.904Q882.663 378.241 882.632 378.577Q882.601 378.913 882.554 379.246Q882.507 379.58 882.443 379.911Q882.38 380.243 882.3 380.57Q882.22 380.898 882.125 381.221Q882.029 381.545 881.918 381.863Q881.807 382.181 881.68 382.494Q881.554 382.806 881.412 383.112Q881.27 383.418 881.114 383.717Q880.957 384.015 880.786 384.306Q880.615 384.597 880.431 384.879Q880.246 385.161 880.047 385.433Q879.849 385.706 879.637 385.968Q879.426 386.231 879.202 386.483Q878.978 386.735 878.742 386.976Q878.505 387.216 878.258 387.445Q878.01 387.674 877.752 387.891Q877.493 388.107 877.225 388.311Q876.956 388.515 876.678 388.705Q876.399 388.895 876.112 389.072Q875.825 389.248 875.529 389.41Q875.233 389.573 874.93 389.72Q874.627 389.868 874.317 390Q874.007 390.133 873.691 390.25Q873.375 390.368 873.053 390.469Q872.732 390.571 872.406 390.657Q872.08 390.743 871.75 390.813Q871.417 390.884 871.081 390.938Q870.745 390.992 870.406 391.029Q870.068 391.067 869.728 391.088Q869.388 391.108 869.047 391.112Q868.707 391.116 868.367 391.103Q868.026 391.09 867.687 391.061Q867.348 391.031 867.011 390.985Q866.673 390.939 866.339 390.876Q866.004 390.813 865.673 390.734Q865.342 390.654 865.015 390.559Q864.688 390.463 864.366 390.352Q864.045 390.24 863.729 390.113Q863.413 389.986 863.104 389.843Q862.795 389.7 862.493 389.543Q862.191 389.385 861.898 389.212Q861.604 389.04 861.319 388.853Q861.035 388.667 860.759 388.466Q860.484 388.266 860.219 388.052Q859.954 387.838 859.7 387.611Q859.446 387.385 859.203 387.146Q858.961 386.907 858.73 386.656Q858.5 386.406 858.281 386.144Q858.064 385.883 857.859 385.61Q857.654 385.338 857.463 385.057Q857.272 384.775 857.095 384.484Q856.918 384.193 856.756 383.894Q856.593 383.594 856.446 383.287Q856.298 382.981 856.166 382.667Q856.034 382.353 855.918 382.033Q855.801 381.713 855.701 381.388Q855.6 381.062 855.516 380.733Q855.431 380.403 855.363 380.069Q855.295 379.735 855.243 379.399Q855.192 379.062 855.157 378.723Q855.122 378.385 855.104 378.045Q855.086 377.705 855.085 377.364Q855.083 377.023 855.099 376.683Q855.114 376.343 855.146 376.004Q855.179 375.665 855.228 375.328Q855.276 374.991 855.342 374.657Q855.407 374.323 855.489 373.992Q855.571 373.662 855.669 373.336Q855.767 373.01 855.881 372.689Q855.995 372.368 856.125 372.053Q856.255 371.738 856.4 371.43Q856.545 371.122 856.705 370.822Q856.865 370.521 857.04 370.229Q857.214 369.936 857.403 369.653Q857.592 369.37 857.795 369.096Q857.997 368.822 858.213 368.559Q858.429 368.296 858.658 368.043Q858.886 367.791 859.127 367.55Q859.368 367.309 859.62 367.081Q859.873 366.852 860.136 366.636Q860.399 366.42 860.673 366.218Q860.947 366.015 861.23 365.826Q861.513 365.637 861.805 365.463Q862.098 365.288 862.398 365.128Q862.699 364.968 863.007 364.823Q863.315 364.678 863.63 364.548Q863.945 364.418 864.266 364.304Q864.587 364.19 864.913 364.092Q865.239 363.994 865.569 363.912Q865.9 363.83 866.234 363.765Z"/>
	<path fill="#F1750A" d="M150.052 545.537Q151.391 545.484 152.73 545.477Q154.07 545.47 155.409 545.51Q156.749 545.549 158.086 545.635Q159.423 545.72 160.756 545.852Q162.089 545.984 163.417 546.162Q164.745 546.34 166.066 546.564Q167.387 546.788 168.699 547.057Q170.012 547.326 171.314 547.641Q172.617 547.955 173.907 548.315Q175.198 548.674 176.475 549.078Q177.753 549.482 179.016 549.929Q180.278 550.377 181.525 550.868Q182.772 551.359 184 551.893Q185.229 552.427 186.439 553.003Q187.648 553.579 188.837 554.197Q190.026 554.814 191.193 555.473Q192.36 556.131 193.503 556.829Q194.647 557.528 195.765 558.265Q196.884 559.003 197.976 559.778Q199.069 560.554 200.134 561.367Q201.199 562.18 202.235 563.029Q203.271 563.878 204.277 564.763Q205.284 565.648 206.259 566.566Q207.234 567.485 208.176 568.437Q209.119 569.389 210.028 570.373Q210.937 571.357 211.812 572.372Q212.687 573.387 213.526 574.432Q214.365 575.476 215.167 576.549Q215.969 577.622 216.734 578.722Q217.499 579.822 218.225 580.948Q218.951 582.074 219.638 583.224Q220.325 584.375 220.972 585.548Q221.619 586.721 222.225 587.916Q222.83 589.111 223.394 590.327Q223.958 591.542 224.48 592.776Q225.002 594.01 225.481 595.261Q225.959 596.513 226.395 597.78Q226.83 599.047 227.221 600.328Q227.612 601.61 227.959 602.904Q228.305 604.198 228.607 605.504Q228.908 606.809 229.165 608.124Q229.421 609.439 229.632 610.762Q229.842 612.085 230.007 613.415Q230.172 614.744 230.29 616.079Q230.409 617.413 230.482 618.751Q230.554 620.089 230.58 621.429Q230.606 622.768 230.586 624.108Q230.566 625.448 230.5 626.786Q230.433 628.124 230.32 629.459Q230.208 630.794 230.049 632.124Q229.89 633.455 229.685 634.779Q229.481 636.103 229.23 637.419Q228.98 638.735 228.684 640.042Q228.389 641.348 228.048 642.644Q227.707 643.94 227.322 645.223Q226.936 646.506 226.507 647.775Q226.077 649.044 225.604 650.298Q225.131 651.551 224.615 652.788Q224.099 654.024 223.54 655.242Q222.982 656.46 222.381 657.657Q221.781 658.855 221.139 660.031Q220.498 661.208 219.816 662.361Q219.134 663.514 218.413 664.643Q217.692 665.772 216.932 666.876Q216.2 667.939 215.433 668.977Q214.666 670.015 213.865 671.027Q213.064 672.039 212.23 673.023Q211.395 674.008 210.529 674.964Q209.662 675.921 208.764 676.847Q207.866 677.774 206.938 678.671Q206.009 679.567 205.051 680.432Q204.094 681.297 203.108 682.13Q202.122 682.963 201.108 683.762Q200.095 684.561 199.056 685.326Q198.017 686.092 196.952 686.822Q195.888 687.552 194.8 688.246Q193.712 688.94 192.602 689.598Q191.491 690.255 190.36 690.876Q189.228 691.496 188.076 692.078Q186.924 692.66 185.754 693.204Q184.583 693.747 183.395 694.252Q182.207 694.756 181.003 695.22Q179.799 695.685 178.58 696.109Q177.361 696.533 176.129 696.916Q174.896 697.299 173.652 697.641Q172.407 697.983 171.152 698.283Q169.897 698.584 168.633 698.842Q167.368 699.1 166.096 699.316Q164.823 699.532 163.544 699.706Q162.266 699.879 160.982 700.01Q159.698 700.141 158.41 700.229Q157.123 700.317 155.833 700.362Q154.543 700.407 153.253 700.409Q151.962 700.411 150.672 700.37Q149.382 700.329 148.094 700.246Q146.806 700.162 145.522 700.035Q144.238 699.908 142.958 699.739Q141.679 699.569 140.406 699.357Q139.133 699.146 137.867 698.891Q136.602 698.637 135.346 698.341Q134.09 698.045 132.844 697.707Q131.599 697.369 130.365 696.989Q129.131 696.61 127.911 696.19Q126.691 695.77 125.485 695.309Q124.28 694.849 123.09 694.348Q121.9 693.848 120.728 693.308Q119.556 692.768 118.402 692.19Q117.248 691.611 116.115 690.995Q114.981 690.378 113.868 689.724Q112.756 689.07 111.666 688.379Q110.575 687.688 109.509 686.962Q108.442 686.235 107.401 685.473Q106.359 684.711 105.343 683.915Q104.327 683.119 103.339 682.289Q102.35 681.46 101.389 680.598Q100.429 679.736 99.4974 678.843Q98.5662 677.949 97.6651 677.025Q96.7641 676.101 95.8944 675.147Q95.0247 674.194 94.1872 673.212Q93.3497 672.23 92.5454 671.221Q91.7411 670.211 90.9708 669.176Q90.2006 668.14 89.4652 667.08Q88.7299 666.019 88.0303 664.935Q87.3308 663.85 86.6677 662.743Q86.0046 661.636 85.3788 660.507Q84.753 659.378 84.1651 658.229Q83.5772 657.08 83.028 655.912Q82.4787 654.745 81.9686 653.559Q81.4585 652.374 80.9882 651.172Q80.5179 649.97 80.0879 648.753Q79.6579 647.536 79.2687 646.306Q78.8795 645.075 78.5314 643.832Q78.1834 642.59 77.877 641.336Q77.5705 640.082 77.306 638.819Q77.0415 637.556 76.8192 636.285Q76.597 635.013 76.4171 633.735Q76.2373 632.457 76.1002 631.174Q75.9631 629.891 75.8687 628.603Q75.7744 627.316 75.723 626.027Q75.6716 624.737 75.6632 623.447Q75.6548 622.156 75.6894 620.866Q75.724 619.576 75.8015 618.288Q75.8791 616.999 75.9995 615.714Q76.1199 614.429 76.2831 613.149Q76.4462 611.869 76.6519 610.595Q76.8576 609.321 77.1057 608.054Q77.3537 606.788 77.6438 605.53Q77.9339 604.273 78.2657 603.025Q78.5975 601.778 78.9707 600.543Q79.3438 599.307 79.7579 598.085Q80.1721 596.863 80.6267 595.655Q81.0813 594.447 81.5759 593.255Q82.0704 592.063 82.6045 590.888Q83.1385 589.713 83.7113 588.556Q84.2842 587.4 84.8953 586.263Q85.5063 585.126 86.1549 584.011Q86.8035 582.895 87.4889 581.801Q88.1743 580.708 88.8958 579.638Q89.6172 578.568 90.3739 577.522Q91.1306 576.477 91.9217 575.457Q92.9867 574.084 94.1123 572.761Q95.2378 571.437 96.4215 570.165Q97.6052 568.893 98.8448 567.676Q100.084 566.458 101.377 565.298Q102.67 564.137 104.014 563.035Q105.357 561.934 106.749 560.894Q108.141 559.854 109.578 558.877Q111.015 557.9 112.494 556.989Q113.973 556.077 115.492 555.233Q117.01 554.389 118.565 553.614Q120.12 552.839 121.708 552.134Q123.296 551.429 124.915 550.797Q126.533 550.164 128.178 549.604Q129.823 549.045 131.491 548.559Q133.159 548.074 134.848 547.664Q136.536 547.254 138.241 546.92Q144.093 545.774 150.052 545.537Z"/>
	<path fill="white" d="M151.667 633.814Q152.01 633.744 152.356 633.692Q152.701 633.639 153.049 633.603Q153.397 633.567 153.747 633.548Q154.096 633.529 154.446 633.527Q154.796 633.525 155.145 633.54Q155.495 633.555 155.843 633.587Q156.191 633.619 156.538 633.668Q156.884 633.717 157.228 633.783Q157.571 633.849 157.911 633.931Q158.251 634.013 158.587 634.112Q158.922 634.211 159.253 634.326Q159.583 634.442 159.907 634.573Q160.232 634.704 160.549 634.85Q160.867 634.997 161.177 635.159Q161.487 635.321 161.789 635.498Q162.09 635.675 162.383 635.866Q162.676 636.057 162.959 636.263Q163.242 636.468 163.515 636.687Q163.788 636.906 164.05 637.138Q164.312 637.37 164.562 637.615Q164.812 637.859 165.05 638.115Q165.288 638.372 165.514 638.639Q165.739 638.907 165.951 639.185Q166.163 639.463 166.361 639.752Q166.559 640.04 166.743 640.338Q166.927 640.635 167.096 640.941Q167.266 641.247 167.42 641.561Q167.574 641.875 167.713 642.197Q167.851 642.518 167.974 642.845Q168.097 643.173 168.204 643.506Q168.31 643.839 168.401 644.177Q168.491 644.515 168.565 644.857Q168.639 645.199 168.696 645.544Q168.753 645.889 168.793 646.237Q168.833 646.584 168.857 646.933Q168.88 647.282 168.886 647.632Q168.892 647.982 168.882 648.332Q168.871 648.681 168.843 649.03Q168.815 649.379 168.77 649.726Q168.726 650.073 168.664 650.417Q168.603 650.761 168.524 651.102Q168.446 651.443 168.351 651.78Q168.256 652.117 168.145 652.449Q168.034 652.781 167.907 653.106Q167.78 653.432 167.637 653.752Q167.494 654.071 167.336 654.383Q167.178 654.695 167.005 654.999Q166.831 655.303 166.644 655.598Q166.456 655.893 166.254 656.179Q166.052 656.465 165.836 656.74Q165.621 657.016 165.392 657.28Q165.163 657.545 164.922 657.798Q164.68 658.051 164.427 658.293Q164.174 658.534 163.909 658.762Q163.644 658.991 163.368 659.206Q163.092 659.422 162.807 659.623Q162.521 659.825 162.225 660.012Q161.93 660.2 161.626 660.373Q161.322 660.546 161.01 660.704Q160.697 660.862 160.378 661.004Q160.058 661.147 159.732 661.274Q159.406 661.4 159.075 661.511Q158.743 661.622 158.406 661.716Q158.069 661.811 157.728 661.889Q157.266 661.995 156.798 662.07Q156.33 662.145 155.859 662.188Q155.387 662.232 154.913 662.245Q154.439 662.258 153.966 662.239Q153.493 662.221 153.021 662.171Q152.55 662.122 152.083 662.041Q151.616 661.96 151.156 661.849Q150.695 661.738 150.243 661.597Q149.791 661.455 149.349 661.284Q148.907 661.114 148.477 660.914Q148.047 660.714 147.632 660.487Q147.216 660.26 146.816 660.005Q146.416 659.751 146.034 659.471Q145.652 659.19 145.289 658.886Q144.926 658.581 144.585 658.253Q144.243 657.925 143.923 657.575Q143.603 657.225 143.308 656.855Q143.012 656.485 142.741 656.096Q142.47 655.707 142.226 655.302Q141.981 654.896 141.764 654.475Q141.546 654.054 141.357 653.619Q141.168 653.185 141.008 652.739Q140.848 652.293 140.718 651.837Q140.588 651.382 140.488 650.919Q140.388 650.456 140.318 649.987Q140.249 649.518 140.211 649.046Q140.173 648.574 140.166 648.1Q140.159 647.626 140.183 647.153Q140.207 646.68 140.263 646.209Q140.318 645.739 140.404 645.273Q140.491 644.807 140.607 644.348Q140.724 643.888 140.871 643.438Q141.018 642.988 141.194 642.548Q141.37 642.108 141.575 641.681Q141.78 641.253 142.012 640.841Q142.245 640.428 142.504 640.031Q142.763 639.635 143.048 639.256Q143.333 638.877 143.642 638.518Q143.951 638.159 144.283 637.821Q144.616 637.483 144.969 637.168Q145.323 636.853 145.697 636.561Q146.07 636.27 146.462 636.004Q146.854 635.738 147.263 635.498Q147.672 635.259 148.096 635.047Q148.519 634.834 148.956 634.651Q149.393 634.467 149.841 634.312Q150.288 634.158 150.746 634.033Q151.203 633.908 151.667 633.814Z"/>
	<path fill="white" d="M152.432 582.363Q152.777 582.324 153.124 582.301Q153.47 582.279 153.818 582.273Q154.165 582.268 154.512 582.279Q154.859 582.29 155.206 582.318Q155.552 582.346 155.896 582.391Q156.241 582.436 156.583 582.497Q156.925 582.559 157.263 582.637Q157.602 582.714 157.936 582.809Q158.27 582.903 158.6 583.013Q158.929 583.124 159.253 583.25Q159.576 583.376 159.893 583.518Q160.21 583.66 160.52 583.817Q160.83 583.973 161.132 584.145Q161.434 584.317 161.727 584.503Q162.021 584.689 162.304 584.89Q162.588 585.09 162.862 585.303Q163.136 585.517 163.399 585.744Q163.662 585.971 163.914 586.21Q164.166 586.449 164.406 586.7Q164.646 586.951 164.873 587.214Q165.101 587.476 165.315 587.75Q165.53 588.023 165.731 588.306Q165.932 588.589 166.119 588.882Q166.306 589.175 166.479 589.476Q166.651 589.778 166.809 590.087Q166.967 590.396 167.11 590.713Q167.252 591.03 167.379 591.353Q167.506 591.677 167.618 592.006Q167.729 592.335 167.824 592.669Q167.919 593.003 167.998 593.341Q168.077 593.679 168.14 594.021Q168.202 594.363 168.248 594.707Q168.294 595.051 168.323 595.397Q168.352 595.744 168.364 596.091Q168.376 596.438 168.372 596.785Q168.367 597.132 168.346 597.479Q168.324 597.826 168.286 598.171Q168.248 598.516 168.193 598.859Q168.138 599.202 168.067 599.542Q167.995 599.882 167.907 600.218Q167.82 600.554 167.716 600.886Q167.612 601.217 167.492 601.543Q167.372 601.869 167.236 602.189Q167.1 602.509 166.949 602.821Q166.798 603.134 166.632 603.439Q166.466 603.745 166.286 604.041Q166.105 604.338 165.911 604.626Q165.716 604.913 165.507 605.191Q165.299 605.469 165.077 605.736Q164.856 606.004 164.621 606.26Q164.387 606.517 164.14 606.761Q163.894 607.006 163.636 607.239Q163.378 607.471 163.109 607.691Q162.84 607.91 162.56 608.117Q162.281 608.323 161.992 608.516Q161.703 608.708 161.405 608.887Q161.107 609.065 160.8 609.229Q160.494 609.393 160.18 609.541Q159.866 609.69 159.545 609.823Q159.225 609.957 158.898 610.074Q158.571 610.192 158.239 610.293Q157.907 610.395 157.57 610.48Q157.233 610.566 156.893 610.635Q156.552 610.704 156.209 610.756Q155.74 610.828 155.267 610.868Q154.794 610.908 154.319 610.917Q153.845 610.926 153.371 610.904Q152.897 610.881 152.425 610.827Q151.954 610.774 151.487 610.689Q151.02 610.604 150.559 610.488Q150.099 610.372 149.647 610.227Q149.196 610.081 148.755 609.905Q148.314 609.73 147.885 609.526Q147.457 609.321 147.043 609.089Q146.629 608.857 146.231 608.598Q145.833 608.339 145.454 608.054Q145.074 607.769 144.714 607.46Q144.354 607.151 144.015 606.818Q143.677 606.486 143.361 606.131Q143.045 605.777 142.753 605.403Q142.461 605.029 142.195 604.636Q141.928 604.243 141.688 603.833Q141.449 603.424 141.236 602.999Q141.024 602.575 140.84 602.137Q140.657 601.699 140.503 601.25Q140.348 600.802 140.224 600.344Q140.1 599.885 140.006 599.42Q139.913 598.955 139.85 598.484Q139.787 598.014 139.756 597.54Q139.725 597.066 139.725 596.592Q139.725 596.117 139.757 595.644Q139.788 595.17 139.851 594.699Q139.914 594.229 140.008 593.764Q140.101 593.298 140.226 592.84Q140.35 592.382 140.505 591.933Q140.659 591.485 140.843 591.047Q141.027 590.609 141.239 590.185Q141.452 589.76 141.692 589.351Q141.932 588.942 142.198 588.549Q142.465 588.156 142.757 587.782Q143.049 587.408 143.365 587.054Q143.681 586.7 144.02 586.368Q144.359 586.036 144.719 585.726Q145.079 585.417 145.459 585.133Q145.839 584.848 146.237 584.589Q146.635 584.33 147.049 584.098Q147.463 583.866 147.891 583.662Q148.32 583.458 148.761 583.283Q149.202 583.108 149.654 582.962Q150.106 582.817 150.566 582.701Q151.026 582.586 151.493 582.501Q151.96 582.417 152.432 582.363Z"/>
	<path fill="white" d="M123.451 608.399Q123.902 608.265 124.361 608.161Q124.82 608.057 125.285 607.984Q125.749 607.911 126.218 607.868Q126.687 607.825 127.157 607.814Q127.627 607.802 128.098 607.822Q128.568 607.841 129.035 607.892Q129.503 607.942 129.967 608.023Q130.43 608.104 130.887 608.216Q131.344 608.327 131.793 608.469Q132.242 608.61 132.681 608.781Q133.119 608.952 133.545 609.151Q133.971 609.35 134.384 609.577Q134.796 609.804 135.192 610.057Q135.589 610.311 135.967 610.59Q136.346 610.869 136.706 611.173Q137.065 611.476 137.404 611.803Q137.743 612.13 138.059 612.478Q138.376 612.826 138.668 613.194Q138.961 613.562 139.229 613.949Q139.497 614.336 139.739 614.74Q139.981 615.143 140.195 615.562Q140.41 615.98 140.597 616.412Q140.783 616.844 140.941 617.287Q141.099 617.731 141.227 618.183Q141.355 618.636 141.453 619.096Q141.551 619.556 141.619 620.022Q141.687 620.488 141.723 620.957Q141.76 621.426 141.766 621.896Q141.771 622.367 141.746 622.836Q141.721 623.306 141.664 623.773Q141.608 624.241 141.521 624.703Q141.434 625.165 141.317 625.621Q141.2 626.077 141.053 626.524Q140.906 626.971 140.73 627.407Q140.554 627.843 140.349 628.267Q140.145 628.691 139.913 629.1Q139.681 629.509 139.422 629.902Q139.164 630.296 138.88 630.671Q138.596 631.046 138.288 631.402Q137.98 631.757 137.649 632.092Q137.319 632.427 136.967 632.739Q136.615 633.051 136.243 633.339Q135.871 633.628 135.481 633.891Q135.091 634.154 134.684 634.391Q134.278 634.627 133.856 634.837Q133.435 635.046 133.001 635.228Q132.567 635.409 132.121 635.561Q131.676 635.713 131.222 635.836Q130.887 635.926 130.547 636Q130.208 636.074 129.866 636.132Q129.523 636.189 129.178 636.23Q128.834 636.271 128.487 636.294Q128.141 636.318 127.794 636.325Q127.446 636.332 127.099 636.322Q126.752 636.312 126.406 636.285Q126.06 636.259 125.715 636.215Q125.371 636.171 125.029 636.111Q124.687 636.051 124.348 635.974Q124.01 635.897 123.675 635.803Q123.341 635.71 123.011 635.6Q122.682 635.491 122.358 635.365Q122.034 635.24 121.717 635.099Q121.399 634.958 121.089 634.802Q120.779 634.645 120.477 634.474Q120.175 634.303 119.882 634.117Q119.588 633.931 119.304 633.732Q119.02 633.532 118.746 633.318Q118.472 633.105 118.209 632.879Q117.946 632.652 117.694 632.413Q117.442 632.174 117.202 631.923Q116.962 631.672 116.735 631.41Q116.507 631.147 116.293 630.874Q116.078 630.601 115.877 630.318Q115.677 630.035 115.49 629.742Q115.303 629.449 115.13 629.148Q114.958 628.846 114.801 628.537Q114.643 628.228 114.501 627.911Q114.359 627.594 114.232 627.271Q114.105 626.947 113.994 626.618Q113.884 626.289 113.789 625.955Q113.694 625.621 113.616 625.283Q113.538 624.944 113.476 624.603Q113.414 624.261 113.369 623.916Q113.324 623.572 113.296 623.226Q113.268 622.88 113.257 622.533Q113.245 622.186 113.251 621.839Q113.257 621.491 113.279 621.145Q113.302 620.798 113.341 620.453Q113.38 620.108 113.436 619.765Q113.492 619.423 113.565 619.083Q113.638 618.744 113.727 618.408Q113.816 618.072 113.922 617.741Q114.027 617.411 114.148 617.085Q114.27 616.76 114.407 616.441Q114.544 616.122 114.696 615.81Q114.849 615.498 115.016 615.193Q115.183 614.889 115.366 614.594Q115.548 614.298 115.744 614.011Q115.94 613.725 116.15 613.448Q116.36 613.172 116.583 612.906Q116.806 612.639 117.042 612.385Q117.278 612.13 117.526 611.887Q117.774 611.643 118.033 611.413Q118.293 611.182 118.563 610.964Q118.834 610.746 119.114 610.542Q119.395 610.337 119.685 610.147Q119.976 609.956 120.275 609.78Q120.574 609.604 120.882 609.443Q121.189 609.281 121.504 609.135Q121.819 608.989 122.141 608.858Q122.463 608.728 122.79 608.613Q123.118 608.498 123.451 608.399Z"/>
	<path fill="white" d="M174.087 608.984Q174.421 608.875 174.759 608.782Q175.098 608.689 175.441 608.613Q175.784 608.536 176.13 608.477Q176.476 608.418 176.825 608.376Q177.174 608.334 177.524 608.31Q177.874 608.285 178.226 608.277Q178.577 608.27 178.928 608.28Q179.279 608.29 179.629 608.317Q179.979 608.344 180.328 608.389Q180.676 608.433 181.022 608.495Q181.367 608.556 181.71 608.635Q182.052 608.713 182.39 608.809Q182.728 608.904 183.061 609.016Q183.394 609.128 183.721 609.256Q184.048 609.384 184.368 609.528Q184.689 609.672 185.001 609.832Q185.314 609.992 185.619 610.167Q185.923 610.341 186.219 610.531Q186.514 610.721 186.8 610.925Q187.086 611.129 187.362 611.347Q187.637 611.565 187.901 611.796Q188.166 612.028 188.418 612.272Q188.671 612.516 188.911 612.772Q189.151 613.028 189.379 613.296Q189.606 613.563 189.82 613.842Q190.034 614.12 190.234 614.409Q190.434 614.698 190.619 614.996Q190.804 615.295 190.975 615.602Q191.145 615.909 191.3 616.224Q191.456 616.539 191.595 616.861Q191.734 617.184 191.858 617.513Q191.981 617.841 192.088 618.176Q192.195 618.51 192.285 618.85Q192.376 619.189 192.449 619.533Q192.523 619.876 192.579 620.223Q192.635 620.569 192.675 620.918Q192.714 621.267 192.736 621.618Q192.758 621.968 192.763 622.32Q192.768 622.671 192.755 623.022Q192.742 623.373 192.713 623.723Q192.683 624.073 192.636 624.421Q192.589 624.769 192.524 625.114Q192.46 625.459 192.379 625.801Q192.298 626.143 192.2 626.48Q192.102 626.817 191.988 627.149Q191.873 627.481 191.743 627.807Q191.612 628.133 191.465 628.453Q191.319 628.772 191.157 629.083Q190.995 629.395 190.817 629.698Q190.64 630.001 190.448 630.295Q190.256 630.589 190.05 630.874Q189.844 631.158 189.624 631.432Q189.404 631.706 189.17 631.968Q188.937 632.231 188.691 632.481Q188.445 632.732 188.187 632.97Q187.929 633.209 187.66 633.434Q187.39 633.659 187.11 633.871Q186.83 634.083 186.54 634.281Q186.249 634.478 185.95 634.661Q185.65 634.844 185.342 635.013Q185.033 635.181 184.717 635.333Q184.401 635.486 184.077 635.623Q183.754 635.76 183.424 635.881Q183.094 636.002 182.759 636.106Q182.427 636.209 182.09 636.296Q181.753 636.384 181.413 636.454Q181.072 636.525 180.728 636.578Q180.385 636.632 180.039 636.669Q179.693 636.706 179.346 636.726Q178.999 636.746 178.651 636.749Q178.303 636.752 177.955 636.738Q177.608 636.724 177.261 636.694Q176.915 636.663 176.57 636.615Q176.226 636.567 175.884 636.503Q175.542 636.438 175.204 636.357Q174.866 636.276 174.532 636.178Q174.198 636.081 173.869 635.967Q173.541 635.853 173.218 635.723Q172.895 635.594 172.579 635.448Q172.263 635.303 171.954 635.143Q171.646 634.982 171.345 634.807Q171.045 634.631 170.754 634.441Q170.462 634.252 170.18 634.048Q169.899 633.844 169.627 633.626Q169.355 633.409 169.095 633.179Q168.834 632.948 168.585 632.705Q168.336 632.463 168.099 632.208Q167.862 631.953 167.638 631.687Q167.414 631.421 167.203 631.144Q166.992 630.868 166.795 630.581Q166.598 630.295 166.415 629.999Q166.232 629.703 166.064 629.399Q165.896 629.094 165.743 628.782Q165.589 628.47 165.452 628.15Q165.314 627.831 165.192 627.505Q165.07 627.179 164.964 626.848Q164.858 626.517 164.768 626.181Q164.679 625.844 164.606 625.504Q164.533 625.164 164.476 624.821Q164.42 624.478 164.38 624.132Q164.341 623.787 164.318 623.44Q164.295 623.093 164.29 622.745Q164.284 622.397 164.295 622.049Q164.307 621.702 164.335 621.355Q164.363 621.008 164.408 620.664Q164.454 620.319 164.516 619.976Q164.577 619.634 164.656 619.295Q164.735 618.956 164.83 618.622Q164.925 618.287 165.036 617.958Q165.147 617.628 165.275 617.305Q165.402 616.981 165.545 616.664Q165.688 616.346 165.846 616.037Q166.004 615.727 166.177 615.425Q166.35 615.124 166.538 614.831Q166.725 614.538 166.927 614.255Q167.129 613.971 167.344 613.698Q167.56 613.425 167.788 613.163Q168.016 612.9 168.257 612.649Q168.498 612.399 168.751 612.16Q169.004 611.921 169.268 611.695Q169.533 611.469 169.808 611.256Q170.083 611.043 170.368 610.843Q170.653 610.644 170.947 610.459Q171.242 610.274 171.545 610.103Q171.848 609.933 172.159 609.777Q172.47 609.622 172.789 609.482Q173.107 609.341 173.432 609.217Q173.757 609.092 174.087 608.984Z"/>
	<path fill="#F1750A" d="M622.274 407.721Q623.877 407.572 625.486 407.502Q627.094 407.431 628.705 407.44Q630.315 407.449 631.922 407.537Q633.53 407.625 635.132 407.791Q636.733 407.958 638.325 408.203Q639.916 408.448 641.493 408.771Q643.071 409.094 644.63 409.494Q646.19 409.895 647.728 410.371Q649.266 410.847 650.779 411.398Q652.292 411.949 653.776 412.574Q655.26 413.198 656.712 413.895Q658.163 414.592 659.579 415.359Q660.995 416.127 662.371 416.963Q663.747 417.798 665.081 418.701Q666.414 419.603 667.702 420.57Q668.989 421.537 670.228 422.566Q671.466 423.595 672.653 424.683Q673.839 425.772 674.971 426.917Q676.103 428.062 677.177 429.262Q678.251 430.461 679.265 431.712Q680.279 432.963 681.23 434.262Q682.181 435.562 683.067 436.906Q683.954 438.25 684.773 439.636Q685.592 441.022 686.342 442.447Q687.092 443.872 687.772 445.332Q688.451 446.792 689.058 448.283Q689.665 449.775 690.197 451.294Q690.73 452.813 691.188 454.357Q691.645 455.901 692.027 457.465Q692.408 459.03 692.712 460.611Q693.016 462.192 693.242 463.786Q693.468 465.381 693.615 466.984Q693.762 468.587 693.831 470.196Q693.899 471.805 693.889 473.415Q693.878 475.025 693.789 476.633Q693.699 478.24 693.53 479.842Q693.362 481.443 693.115 483.034Q692.868 484.625 692.543 486.202Q692.219 487.779 691.817 489.339Q691.415 490.898 690.937 492.436Q690.459 493.973 689.907 495.486Q689.354 496.998 688.728 498.481Q688.101 499.965 687.403 501.415Q686.704 502.866 685.935 504.281Q685.167 505.696 684.329 507.071Q683.492 508.446 682.588 509.779Q681.684 511.111 680.716 512.398Q679.748 513.684 678.717 514.922Q677.687 516.159 676.597 517.344Q675.508 518.53 674.361 519.66Q673.214 520.791 672.014 521.863Q670.813 522.936 669.561 523.949Q668.309 524.961 667.009 525.911Q665.708 526.861 664.363 527.746Q663.018 528.63 661.631 529.448Q660.244 530.266 658.818 531.014Q657.392 531.763 655.932 532.441Q654.471 533.118 652.979 533.723Q651.487 534.329 649.967 534.86Q648.447 535.391 646.903 535.847Q645.358 536.303 643.793 536.682Q642.229 537.062 640.647 537.364Q639.066 537.666 637.471 537.89Q635.877 538.114 634.273 538.26Q632.672 538.405 631.065 538.472Q629.459 538.539 627.851 538.527Q626.243 538.515 624.638 538.424Q623.032 538.333 621.433 538.163Q619.834 537.994 618.246 537.746Q616.657 537.498 615.082 537.173Q613.508 536.847 611.951 536.445Q610.394 536.043 608.859 535.565Q607.324 535.087 605.814 534.534Q604.304 533.981 602.823 533.355Q601.342 532.729 599.893 532.031Q598.445 531.333 597.032 530.565Q595.62 529.797 594.247 528.96Q592.873 528.124 591.543 527.221Q590.212 526.318 588.928 525.351Q587.643 524.384 586.407 523.355Q585.172 522.327 583.988 521.239Q582.804 520.15 581.675 519.005Q580.546 517.861 579.475 516.662Q578.403 515.463 577.392 514.213Q576.38 512.963 575.432 511.665Q574.483 510.367 573.599 509.024Q572.714 507.681 571.897 506.296Q571.08 504.911 570.332 503.488Q569.583 502.065 568.906 500.607Q568.228 499.149 567.623 497.659Q567.018 496.169 566.486 494.652Q565.954 493.134 565.498 491.593Q565.042 490.051 564.661 488.489Q564.281 486.926 563.977 485.347Q563.674 483.768 563.449 482.176Q563.223 480.584 563.076 478.983Q562.929 477.382 562.86 475.775Q562.792 474.169 562.802 472.561Q562.813 470.953 562.902 469.348Q562.991 467.742 563.159 466.143Q563.327 464.544 563.573 462.955Q563.819 461.366 564.142 459.791Q564.466 458.216 564.866 456.659Q565.267 455.102 565.743 453.566Q566.22 452.03 566.771 450.52Q567.322 449.009 567.946 447.528Q568.571 446.046 569.267 444.597Q569.963 443.148 570.73 441.734Q571.497 440.321 572.332 438.947Q573.167 437.573 574.068 436.241Q574.969 434.91 575.935 433.624Q576.9 432.338 577.928 431.101Q578.955 429.865 580.042 428.68Q581.129 427.495 582.273 426.364Q583.416 425.234 584.614 424.161Q585.812 423.089 587.06 422.076Q588.309 421.063 589.606 420.113Q590.903 419.162 592.245 418.277Q593.587 417.391 594.971 416.572Q596.355 415.754 597.777 415.004Q599.2 414.254 600.657 413.575Q602.114 412.896 603.603 412.289Q605.092 411.682 606.609 411.148Q608.126 410.615 609.667 410.157Q611.208 409.699 612.77 409.317Q614.332 408.935 615.911 408.63Q617.49 408.325 619.081 408.097Q620.673 407.87 622.274 407.721Z"/>
	<path fill="white" d="M623.54 417.903Q624.897 417.787 626.258 417.737Q627.619 417.688 628.98 417.705Q630.342 417.722 631.701 417.806Q633.06 417.89 634.414 418.04Q635.767 418.19 637.111 418.407Q638.456 418.623 639.788 418.906Q641.12 419.188 642.437 419.535Q643.754 419.882 645.052 420.293Q646.35 420.705 647.627 421.179Q648.903 421.653 650.155 422.19Q651.406 422.726 652.63 423.323Q653.854 423.92 655.047 424.577Q656.24 425.233 657.4 425.947Q658.559 426.661 659.682 427.431Q660.806 428.201 661.89 429.026Q662.974 429.85 664.016 430.726Q665.058 431.602 666.056 432.529Q667.054 433.455 668.006 434.429Q668.958 435.404 669.86 436.423Q670.763 437.443 671.614 438.505Q672.466 439.568 673.264 440.671Q674.063 441.774 674.806 442.915Q675.549 444.056 676.236 445.232Q676.923 446.408 677.551 447.616Q678.179 448.825 678.747 450.062Q679.315 451.3 679.822 452.564Q680.329 453.828 680.773 455.115Q681.217 456.402 681.598 457.71Q681.978 459.017 682.294 460.342Q682.61 461.666 682.861 463.005Q683.112 464.343 683.297 465.692Q683.482 467.041 683.6 468.398Q683.719 469.755 683.77 471.115Q683.822 472.476 683.807 473.838Q683.792 475.2 683.711 476.559Q683.629 477.918 683.481 479.272Q683.333 480.625 683.118 481.97Q682.904 483.315 682.624 484.648Q682.344 485.98 681.999 487.298Q681.654 488.615 681.245 489.914Q680.836 491.213 680.363 492.49Q679.891 493.767 679.357 495.019Q678.822 496.272 678.227 497.497Q677.632 498.722 676.978 499.916Q676.323 501.11 675.611 502.271Q674.899 503.431 674.131 504.556Q673.362 505.68 672.54 506.765Q671.718 507.851 670.843 508.894Q669.968 509.938 669.044 510.938Q668.119 511.938 667.146 512.891Q666.174 513.844 665.156 514.748Q664.137 515.652 663.076 516.505Q662.015 517.359 660.913 518.159Q659.811 518.959 658.672 519.704Q657.532 520.45 656.357 521.138Q655.182 521.827 653.975 522.457Q652.768 523.087 651.531 523.657Q650.294 524.227 649.031 524.736Q647.768 525.245 646.482 525.691Q645.195 526.138 643.888 526.52Q642.581 526.903 641.257 527.221Q639.933 527.539 638.595 527.792Q637.257 528.045 635.908 528.232Q634.559 528.419 633.203 528.54Q631.844 528.661 630.48 528.715Q629.117 528.769 627.752 528.756Q626.388 528.743 625.026 528.663Q623.663 528.583 622.307 528.436Q620.95 528.289 619.602 528.076Q618.255 527.863 616.919 527.583Q615.583 527.304 614.263 526.96Q612.942 526.615 611.641 526.206Q610.339 525.797 609.058 525.325Q607.778 524.853 606.523 524.318Q605.267 523.783 604.04 523.188Q602.812 522.592 601.615 521.936Q600.418 521.281 599.255 520.568Q598.092 519.854 596.965 519.085Q595.838 518.315 594.75 517.491Q593.662 516.667 592.617 515.791Q591.571 514.914 590.569 513.988Q589.568 513.061 588.613 512.086Q587.658 511.111 586.752 510.091Q585.846 509.07 584.991 508.006Q584.137 506.943 583.336 505.838Q582.534 504.734 581.788 503.591Q581.042 502.449 580.353 501.271Q579.664 500.093 579.033 498.883Q578.403 497.672 577.833 496.433Q577.263 495.193 576.754 493.927Q576.245 492.661 575.8 491.371Q575.354 490.081 574.972 488.771Q574.59 487.461 574.273 486.134Q573.956 484.807 573.704 483.465Q573.453 482.124 573.267 480.772Q573.082 479.42 572.963 478.061Q572.844 476.702 572.792 475.338Q572.741 473.974 572.756 472.61Q572.771 471.245 572.853 469.883Q572.936 468.521 573.085 467.165Q573.234 465.808 573.449 464.461Q573.665 463.114 573.946 461.778Q574.227 460.443 574.574 459.123Q574.921 457.803 575.332 456.502Q575.743 455.201 576.217 453.922Q576.692 452.642 577.229 451.388Q577.765 450.133 578.363 448.906Q578.961 447.68 579.618 446.484Q580.275 445.288 580.99 444.126Q581.706 442.964 582.477 441.838Q583.248 440.712 584.074 439.626Q584.9 438.54 585.778 437.495Q586.656 436.451 587.585 435.451Q588.513 434.451 589.489 433.497Q590.466 432.544 591.488 431.64Q592.51 430.736 593.575 429.883Q594.64 429.03 595.746 428.23Q596.852 427.431 597.996 426.687Q599.139 425.942 600.318 425.255Q601.497 424.568 602.708 423.939Q603.92 423.311 605.16 422.743Q606.401 422.175 607.668 421.668Q608.935 421.162 610.226 420.718Q611.516 420.274 612.827 419.894Q614.137 419.515 615.465 419.2Q616.793 418.885 618.134 418.635Q619.476 418.386 620.828 418.203Q622.18 418.02 623.54 417.903Z"/>
	<path fill="#F1750A" d="M533.951 409.059L542.561 409.126C542.008 451.573 542.505 494.059 542.415 536.512L532.983 536.903Q532.743 482.399 533.098 427.9C528.026 433.141 524.138 439.631 519.937 445.57C514.558 453.176 509.007 460.659 503.681 468.304C498.131 476.272 492.814 484.613 486.441 491.951C481.601 484.8 476.292 478.026 471.205 471.056C460.901 456.936 450.591 442.89 439.643 429.259L439.681 434.375Q440.046 485.463 439.803 536.552L430.422 536.976L430.103 409.524L438.218 409.656C446.98 421.87 455.576 434.233 464.54 446.297C471.528 455.701 481.132 466.357 486.175 476.861C491.043 469.284 496.588 462.046 501.818 454.71Q518.172 432.087 533.951 409.059Z"/>
	<path fill="#F1750A" d="M394.516 409.6L404.367 409.673L404.401 418.75L404.433 466.095C404.465 477.437 405.775 490.192 403.23 501.239Q402.863 502.865 402.385 504.462Q401.908 506.059 401.322 507.62Q400.736 509.181 400.044 510.697Q399.352 512.214 398.558 513.68Q397.764 515.146 396.871 516.554Q395.979 517.962 394.992 519.305Q394.005 520.648 392.928 521.921Q391.851 523.193 390.689 524.389C381.471 533.721 369.236 538.152 356.237 538.202C343.278 538.253 330.993 533.611 321.791 524.396Q320.578 523.158 319.453 521.84Q318.327 520.522 317.295 519.13Q316.262 517.738 315.328 516.279Q314.393 514.819 313.561 513.299Q312.728 511.779 312.002 510.205Q311.276 508.631 310.659 507.012Q310.042 505.392 309.538 503.734Q309.034 502.076 308.644 500.387C305.707 487.9 307.144 471.36 307.189 458.281L307.127 409.67L317.318 409.943C317.717 429.142 317.358 448.413 317.333 467.618C317.319 477.684 316.24 489.098 318.416 498.939C319.946 505.857 323.357 512.533 328.304 517.631C335.837 525.393 346.456 528.998 357.132 528.999C366.831 529.001 376.595 525.238 383.445 518.299C388.545 513.133 391.777 506.672 393.377 499.623C395.8 488.953 394.621 476.604 394.62 465.675L394.516 409.6Z"/>
	<path fill="#F1750A" d="M746.161 407.674C759.166 405.908 772.757 411.32 783.536 418.101C783.518 421.545 783.24 424.965 782.984 428.398C774.055 423.138 765.499 418.272 755.012 417.121C746.306 416.165 736.658 417.796 729.744 423.532C725.32 427.203 722.307 433.185 721.973 438.952C720.923 457.118 749.004 466.182 761.989 473.164C768.337 476.578 774.846 480.85 779.691 486.246C784.928 492.079 787.125 499.011 786.595 506.81C785.966 516.065 781.395 524.326 774.379 530.303C765.233 538.093 752.875 539.254 741.38 538.321C728.869 536.746 718.08 531.44 707.448 524.888L707.309 512.219C709.575 514.197 711.892 516.166 714.264 518.016C725.098 526.464 737.916 531.582 751.772 529.742C759.386 528.731 766.594 525.427 771.21 519.088C774.764 514.207 775.756 508.181 774.763 502.292C771.557 483.281 739.045 475.281 724.806 465.287C718.095 460.577 713.105 454.388 711.798 446.055C710.419 437.267 712.134 428.763 717.573 421.685C724.458 412.724 735.367 409.145 746.161 407.674Z"/>
	<path fill="#F1750A" d="M225.842 409.966L236.255 410.031C236.792 425.282 236.423 440.663 236.423 455.93L236.284 527.016L297.591 527.139L297.504 536.352L225.59 536.436C225.589 494.352 224.8 452.033 225.842 409.966Z"/>
	<path fill="#F1750A" d="M572.361 581.645Q572.836 581.6 573.313 581.578Q573.79 581.557 574.268 581.559Q574.745 581.56 575.222 581.586Q575.699 581.611 576.174 581.66Q576.649 581.709 577.121 581.781Q577.593 581.853 578.061 581.949Q578.529 582.044 578.992 582.162Q579.454 582.281 579.91 582.422Q580.367 582.563 580.815 582.726Q581.264 582.889 581.704 583.074Q582.144 583.26 582.575 583.466Q583.005 583.673 583.425 583.9Q583.845 584.128 584.253 584.376Q584.661 584.624 585.056 584.892Q585.452 585.16 585.833 585.447Q586.215 585.734 586.582 586.039Q586.949 586.345 587.301 586.668Q587.652 586.991 587.987 587.331Q588.323 587.671 588.641 588.027Q588.959 588.383 589.259 588.755Q589.559 589.126 589.84 589.512Q590.122 589.898 590.384 590.297Q590.646 590.696 590.888 591.108Q591.13 591.519 591.352 591.942Q591.573 592.365 591.774 592.799Q591.974 593.232 592.153 593.675Q592.332 594.118 592.488 594.569Q592.645 595.02 592.779 595.478Q592.914 595.936 593.025 596.401Q593.137 596.865 593.226 597.334Q593.314 597.803 593.38 598.276Q593.445 598.749 593.487 599.225Q593.529 599.701 593.547 600.178Q593.566 600.655 593.561 601.132Q593.556 601.61 593.527 602.086Q593.499 602.563 593.447 603.038Q593.395 603.512 593.32 603.984Q593.244 604.456 593.146 604.923Q593.047 605.39 592.926 605.852Q592.804 606.314 592.66 606.769Q592.516 607.224 592.35 607.672Q592.184 608.12 591.996 608.558Q591.808 608.997 591.598 609.426Q591.389 609.855 591.158 610.274Q590.928 610.692 590.677 611.098Q590.427 611.505 590.156 611.898Q589.886 612.292 589.596 612.672Q589.307 613.051 588.999 613.416Q588.691 613.781 588.366 614.131Q588.04 614.48 587.698 614.813Q587.356 615.146 586.997 615.462Q586.639 615.777 586.266 616.075Q585.892 616.373 585.505 616.651Q585.117 616.93 584.716 617.19Q584.315 617.449 583.902 617.689Q583.489 617.928 583.064 618.147Q582.64 618.365 582.205 618.563Q581.771 618.761 581.327 618.936Q580.883 619.112 580.431 619.266Q579.979 619.42 579.519 619.551Q579.06 619.683 578.595 619.791Q578.13 619.9 577.661 619.985Q577.191 620.071 576.717 620.133Q576.244 620.195 575.768 620.234Q575.296 620.273 574.823 620.288Q574.35 620.303 573.876 620.296Q573.403 620.288 572.93 620.257Q572.458 620.226 571.987 620.172Q571.517 620.119 571.05 620.042Q570.582 619.965 570.12 619.865Q569.657 619.766 569.199 619.644Q568.742 619.522 568.291 619.377Q567.84 619.233 567.396 619.067Q566.953 618.901 566.518 618.713Q566.083 618.526 565.658 618.317Q565.233 618.109 564.819 617.879Q564.404 617.65 564.002 617.401Q563.599 617.152 563.209 616.884Q562.819 616.615 562.443 616.328Q562.066 616.041 561.704 615.735Q561.342 615.43 560.996 615.108Q560.649 614.785 560.318 614.446Q559.988 614.107 559.675 613.752Q559.361 613.397 559.065 613.027Q558.77 612.657 558.492 612.274Q558.215 611.89 557.957 611.493Q557.698 611.096 557.46 610.687Q557.221 610.278 557.003 609.858Q556.785 609.438 556.587 609.007Q556.39 608.577 556.214 608.137Q556.037 607.698 555.883 607.25Q555.728 606.803 555.596 606.348Q555.463 605.894 555.353 605.433Q555.243 604.973 555.155 604.507Q555.068 604.042 555.003 603.573Q554.939 603.104 554.897 602.632Q554.855 602.16 554.837 601.687Q554.818 601.214 554.823 600.741Q554.827 600.267 554.855 599.794Q554.883 599.322 554.934 598.851Q554.984 598.38 555.058 597.912Q555.132 597.445 555.228 596.981Q555.325 596.518 555.444 596.059Q555.563 595.601 555.704 595.149Q555.846 594.697 556.009 594.253Q556.172 593.808 556.357 593.372Q556.541 592.936 556.747 592.51Q556.953 592.083 557.179 591.667Q557.406 591.251 557.652 590.847Q557.899 590.443 558.165 590.051Q558.43 589.659 558.715 589.281Q559 588.902 559.303 588.539Q559.606 588.175 559.926 587.826Q560.246 587.477 560.583 587.144Q560.92 586.812 561.273 586.496Q561.626 586.18 561.994 585.882Q562.361 585.584 562.743 585.304Q563.125 585.024 563.52 584.763Q563.916 584.502 564.323 584.261Q564.731 584.02 565.149 583.799Q565.568 583.578 565.997 583.377Q566.426 583.177 566.864 582.998Q567.303 582.819 567.749 582.661Q568.196 582.504 568.65 582.368Q569.103 582.233 569.563 582.12Q570.023 582.006 570.488 581.916Q570.952 581.825 571.421 581.758Q571.89 581.69 572.361 581.645Z"/>
	<path fill="white" d="M571.28 586.19Q571.774 586.09 572.274 586.022Q572.774 585.955 573.277 585.92Q573.78 585.886 574.284 585.885Q574.788 585.885 575.292 585.917Q575.795 585.95 576.295 586.016Q576.795 586.081 577.289 586.18Q577.784 586.279 578.271 586.41Q578.758 586.542 579.235 586.705Q579.712 586.868 580.177 587.063Q580.642 587.257 581.094 587.482Q581.545 587.707 581.98 587.962Q582.416 588.216 582.834 588.498Q583.251 588.781 583.649 589.091Q584.047 589.4 584.424 589.736Q584.801 590.071 585.154 590.43Q585.508 590.79 585.837 591.172Q586.166 591.554 586.469 591.957Q586.772 592.36 587.048 592.783Q587.323 593.205 587.57 593.645Q587.818 594.084 588.035 594.539Q588.252 594.994 588.439 595.463Q588.626 595.931 588.781 596.411Q588.937 596.891 589.06 597.38Q589.183 597.869 589.274 598.365Q589.365 598.861 589.422 599.362Q589.48 599.863 589.504 600.367Q589.528 600.87 589.519 601.374Q589.51 601.879 589.468 602.381Q589.425 602.884 589.349 603.382Q589.274 603.881 589.165 604.373Q589.056 604.866 588.916 605.35Q588.775 605.834 588.602 606.308Q588.429 606.782 588.226 607.243Q588.022 607.704 587.788 608.151Q587.554 608.598 587.292 609.029Q587.029 609.459 586.738 609.871Q586.447 610.283 586.13 610.675Q585.812 611.067 585.47 611.437Q585.127 611.807 584.761 612.153Q584.394 612.5 584.006 612.821Q583.617 613.143 583.208 613.438Q582.799 613.733 582.372 614Q581.944 614.267 581.5 614.506Q581.055 614.744 580.596 614.952Q580.137 615.161 579.665 615.338Q579.193 615.516 578.71 615.662Q578.227 615.808 577.736 615.922Q577.245 616.035 576.747 616.116Q576.383 616.175 576.017 616.216Q575.65 616.258 575.282 616.281Q574.914 616.305 574.545 616.311Q574.177 616.317 573.808 616.304Q573.439 616.292 573.072 616.262Q572.704 616.232 572.339 616.185Q571.973 616.137 571.61 616.071Q571.247 616.006 570.888 615.923Q570.528 615.84 570.173 615.74Q569.819 615.64 569.469 615.522Q569.119 615.405 568.776 615.271Q568.432 615.137 568.096 614.986Q567.759 614.835 567.43 614.669Q567.101 614.502 566.781 614.32Q566.46 614.137 566.149 613.939Q565.838 613.741 565.536 613.529Q565.235 613.316 564.945 613.089Q564.654 612.862 564.375 612.621Q564.095 612.381 563.828 612.127Q563.561 611.872 563.306 611.606Q563.051 611.339 562.81 611.06Q562.568 610.782 562.341 610.491Q562.113 610.201 561.9 609.901Q561.686 609.6 561.488 609.289Q561.289 608.978 561.106 608.658Q560.923 608.338 560.755 608.01Q560.588 607.681 560.436 607.345Q560.285 607.008 560.15 606.665Q560.015 606.322 559.897 605.973Q559.779 605.623 559.678 605.269Q559.577 604.914 559.493 604.555Q559.409 604.196 559.343 603.833Q559.277 603.47 559.228 603.105Q559.179 602.739 559.149 602.372Q559.118 602.004 559.105 601.636Q559.092 601.267 559.097 600.898Q559.101 600.53 559.124 600.161Q559.147 599.793 559.187 599.427Q559.228 599.06 559.286 598.696Q559.344 598.332 559.42 597.971Q559.496 597.61 559.589 597.253Q559.682 596.897 559.793 596.545Q559.903 596.193 560.031 595.847Q560.158 595.501 560.302 595.161Q560.446 594.822 560.606 594.489Q560.766 594.157 560.942 593.833Q561.118 593.509 561.31 593.194Q561.502 592.879 561.708 592.574Q561.915 592.268 562.136 591.973Q562.357 591.678 562.593 591.394Q562.828 591.11 563.077 590.838Q563.325 590.566 563.587 590.306Q563.849 590.046 564.123 589.799Q564.396 589.552 564.682 589.319Q564.968 589.085 565.264 588.866Q565.561 588.647 565.867 588.442Q566.174 588.237 566.491 588.048Q566.807 587.858 567.132 587.684Q567.457 587.51 567.79 587.352Q568.124 587.194 568.464 587.053Q568.805 586.911 569.152 586.786Q569.499 586.661 569.851 586.553Q570.204 586.445 570.561 586.354Q570.919 586.263 571.28 586.19Z"/>
	<path fill="#F1750A" d="M694.402 582.447C702.399 582.393 711.662 581.568 718.485 586.605C721.837 589.08 723.805 592.693 724.403 596.787C725.353 603.302 723.56 608.977 719.713 614.182C712.969 620.88 703.206 619.711 694.477 619.735L694.402 582.447Z"/>
	<path fill="white" d="M698.896 586.495C704.734 586.417 710.042 586.166 715.058 589.718C718.041 591.831 720.292 595.091 720.744 598.763C721.331 603.54 719.192 608.001 716.267 611.617C711.147 616.195 705.333 616.091 698.884 616.207L698.896 586.495Z"/>
	<path fill="#F1750A" d="M639.303 581.445C639.74 582.073 639.665 581.806 639.761 582.536C640.407 587.42 646.101 617.663 645.549 619.288C644.514 619.498 643.934 619.525 642.91 619.257C640.313 616.557 638.832 597.85 638.255 593.393C633.697 602.328 629.521 611.501 625.201 620.556C620.379 613.224 616.462 599.625 612.256 594.147L611.674 596.544C610.892 601.154 609.67 616.552 607.384 619.424C606.14 619.757 606.175 619.845 605.05 619.251C603.6 616.514 609.596 586.803 610.239 581.229C615.568 591.2 619.637 601.819 625.058 611.762C630.574 602.406 634.935 591.404 639.303 581.445Z"/>
	<path fill="#F1750A" d="M507.24 581.201C511.503 584.728 515.25 589.364 519.05 593.403Q527.684 602.532 536.519 611.465C536.512 606.222 535.571 585.995 536.932 582.356C538.191 582.089 539.207 582.331 540.441 582.573C541.472 584.681 540.778 615.888 540.769 620.811L540.369 621.261C537.698 619.296 535.444 616.274 533.094 613.897C525.852 606.57 518.761 599.098 511.461 591.829C511.24 599.724 512.113 610.416 510.96 617.928C510.782 619.085 510.449 619.528 509.496 620.133L508.405 619.624C507.614 618.51 507.147 617.584 506.975 616.21C506.554 612.86 506.993 608.99 506.994 605.577C506.997 597.463 506.815 589.306 507.24 581.201Z"/>
	<path fill="#F1750A" d="M763.341 608.138C761.497 611.385 759.237 618.58 755.947 619.945C754.752 619.653 754.721 619.721 754.017 618.73C756.426 612.528 759.655 606.51 762.52 600.501C765.41 594.441 768.092 588.071 771.403 582.237C773.948 587.436 788.827 615.831 788.425 619.675C787.232 620.327 787.212 620.423 785.891 620.185C782.229 617.413 781.532 609.385 777.883 608.018C773.06 608.237 768.172 608.108 763.341 608.138Z"/>
	<path fill="white" d="M768.15 605.457L764.677 605.042C765.24 601.216 769.515 594.326 771.317 590.555C773.658 595.318 776.296 600.261 777.909 605.317C774.649 605.29 771.406 605.255 768.15 605.457Z"/>
	<path fill="#F1750A" d="M469.021 581.956C470.02 581.97 470.738 582.041 471.681 582.378L471.748 583.208C467.161 589.231 461.314 594.616 455.893 599.891C460.843 604.986 470.367 613.516 473.725 619.345C473.188 619.636 472.797 619.746 472.18 619.725C470.461 619.665 469.054 619.185 467.648 618.202C464.14 615.749 456.269 606.135 452.594 602.308L451.818 601.993C450.523 604.341 451.994 615.02 450.851 619.094L449.712 619.624C448.296 619.447 448.205 619.609 447.328 618.515C447.383 613.264 446.664 586.662 448.05 584.112C448.687 582.94 448.952 582.94 450.153 582.65C452.634 585.337 451.608 594.98 451.56 598.799C457.825 593.663 462.532 586.82 469.021 581.956Z"/>
	<path fill="#F1750A" d="M659.448 582.449C663.381 582.44 676.895 581.4 679.869 582.861C680.698 583.927 680.791 584.014 680.866 585.351C678.977 586.76 667.256 586.241 664.129 586.394C663.984 589.905 663.342 594.603 664.356 597.929C668.378 597.879 677.544 596.777 680.645 599.303C679.264 600.744 677.222 601.469 675.235 601.532C673.465 601.588 671.678 601.528 669.908 601.496L663.979 601.484Q663.874 608.885 663.955 616.287C667.26 616.293 678.603 615.391 680.667 617.163L680.502 618.226C676.917 621.112 664.221 619.582 659.509 619.515L659.448 582.449Z"/>
	<path fill="#F1750A" d="M485.937 582.586C486.155 582.58 486.374 582.57 486.593 582.567C488.016 582.55 489.166 582.393 490.234 583.412C491.423 593.988 490.449 608.46 490.25 619.411C488.804 619.522 487.537 619.767 486.211 619.041C484.988 608.981 485.923 593.222 485.937 582.586Z"/>
	<path fill="#F1750A" d="M738.476 582.42C739.861 582.52 741.142 582.37 742.325 583.129C743.165 595.207 742.498 607.748 742.457 619.876C741.043 619.874 740.135 619.873 738.805 619.317C737.317 614.397 738.434 589.413 738.476 582.42Z"/>
</svg>
